<?xml version="1.0" standalone="no"?><!DOCTYPE svg PUBLIC "-//W3C//DTD SVG 1.1//EN" "http://www.w3.org/Graphics/SVG/1.1/DTD/svg11.dtd"><svg t="1555420137115" class="icon" style="" viewBox="0 0 1024 1024" version="1.1" xmlns="http://www.w3.org/2000/svg" p-id="5195" xmlns:xlink="http://www.w3.org/1999/xlink" width="16" height="16"><defs><style type="text/css"></style></defs><path d="M956.4 798.3l-163.3-302c8.1-19.2 14.6-39.1 19.2-59.8 4.7-20.7 7-42 7-64.2 0-42.5-8.1-82.4-24.4-119.6-16.3-37.2-38.3-69.8-65.9-97.8C701.3 127 668.9 105 631.6 89 594.4 73 554.5 65 512 65s-82.4 8-119.6 24c-37.2 16-69.8 38-97.8 65.9s-49.9 60.5-65.9 97.8c-16 37.2-24 77.1-24 119.6 0 22.7 2.3 44.7 7 65.9 4.7 21.2 11.3 41.5 20.1 60.7L67.6 798.3c-2.9 4.7-4.1 9.7-3.5 15.3 0.6 5.5 2.6 10.3 6.1 14.4 2.9 4.7 7 8 12.2 10 5.2 2 10.5 2.2 15.7 0.4L238.7 807l48 133.6c1.7 5.2 4.8 9.5 9.2 12.7s9.5 5.1 15.3 5.7h1.7c5.2 0 10-1.3 14.4-3.9s7.7-6.3 10-10.9l143.2-266.3c5.2 0.6 10.5 1 15.7 1.3 5.2 0.3 10.5 0.4 15.7 0.4 4.7 0 9.5-0.1 14.4-0.4 4.9-0.3 9.8-0.7 14.4-1.3l145.8 266.3c2.3 4.7 5.7 8.3 10 10.9s9.2 3.9 14.4 3.9h2.6c5.2-0.6 10-2.5 14.4-5.7s7.4-7.4 9.2-12.7l48-133.6 140.6 31.4c5.2 1.7 10.5 1.6 15.7-0.4 5.2-2 9.3-5.1 12.2-9.2 3.5-4.7 5.5-9.7 6.1-15.3 0.7-5.4-0.4-10.5-3.3-15.2zM512 613.1c-132.5 0-240-107.5-240-240s107.5-240 240-240 240 107.5 240 240-107.5 240-240 240z" p-id="5196" fill="#707070"></path><path d="M512 374.1m-195 0a195 195 0 1 0 390 0 195 195 0 1 0-390 0Z" p-id="5197" fill="#707070"></path></svg>